# xmcd
#
# Track frame offsets: 
#        150
#        11312
#        22612
#        35372
#        47431
#        58410
#        71192
#        83939
#        94954
#        104762
#        117482
#        127937
#        140724
#        153356
#        165102
#        177457
#        186668
#        200830
#        213629
#        224569
#        237104
#        247671
#        261228
#        271961
#        280157
#
# Disc length: 3877 seconds
#
# Revision: 0
# Processed by: cddbd v1.5.2PL0 Copyright (c) Steve Scherf et al.
# Submitted via: ExactAudioCopyFreeDBPlugin 1.0
#
DISCID=750f2319
DTITLE=Various Artist - Lonesome Highway - Hubbin' It CD3
DYEAR=2015
DGENRE=Country
TTITLE0=June Christy - A Mile Down The Highway
TTITLE1=Arkie Shibley - Hot Rod Race
TTITLE2=Ray Smith - Lonesome Truck Driver's Blues
TTITLE3=Lowell Fulson - Let Me Ride Your Little Automobile
TTITLE4=George Stogner - Hard Top Race
TTITLE5=Jackie Brenston - Rocket 88
TTITLE6=Flatt and Scruggs - I'm Working On A Road
TTITLE7=Bob Wills - Hubbin' It
TTITLE8=Jess Willard - Truck Driver's Boogie
TTITLE9=Tillman Franks - Hot Rod Shotgun Boogie No. 2
TTITLE10=Little Richard - Taxi Blues
TTITLE11=Willie Love - V-8 Ford
TTITLE12=Howlin' Wolf - Mr. Highway Man
TTITLE13=Johnny Guitar Watson - Motor Head Baby
TTITLE14=Red Foley and Ernest Tubb - It's The Mileage That's Slowing Us 
TTITLE14=Down
TTITLE15=Bob Wills - Cadillac In Model "A"
TTITLE16=Flatt and Scruggs - Don't This Road Look Rough And Rocky
TTITLE17=Bo Diddley - Road Runner
TTITLE18=Nervous Norvus - Transfusion
TTITLE19=Bo Diddley - Cadillac
TTITLE20=Chuck Berry - Maybellene
TTITLE21=Chuck Berry - No Money Down
TTITLE22=Doug Harden - Dig That Ford
TTITLE23=Curtis Gordon - Draggin'
TTITLE24=Sammy Masters - Pink Cadillac
EXTD=
EXTT0=
EXTT1=
EXTT2=
EXTT3=
EXTT4=
EXTT5=
EXTT6=
EXTT7=
EXTT8=
EXTT9=
EXTT10=
EXTT11=
EXTT12=
EXTT13=
EXTT14=
EXTT15=
EXTT16=
EXTT17=
EXTT18=
EXTT19=
EXTT20=
EXTT21=
EXTT22=
EXTT23=
EXTT24=
PLAYORDER=
